<svg width="15" height="15" viewBox="0 0 15 15" fill="none" xmlns="http://www.w3.org/2000/svg">
<g clip-path="url(#clip0_27_21)">
<path fill-rule="evenodd" clip-rule="evenodd" d="M6.19122 3.13725C6.19122 2.96731 6.25878 2.80432 6.37896 2.68415C6.49912 2.56399 6.66202 2.49647 6.83196 2.49647H8.1136C8.28356 2.49647 8.44645 2.56399 8.56662 2.68415C8.68678 2.80432 8.75435 2.96731 8.75435 3.13725V6.18299H11.8628C12.0328 6.18299 12.1957 6.25051 12.3158 6.37067C12.436 6.49085 12.5036 6.65383 12.5036 6.82377V8.10533C12.5036 8.27527 12.436 8.43826 12.3158 8.55843C12.1957 8.6786 12.0328 8.74611 11.8628 8.74611H8.75435V11.8546C8.75435 12.0245 8.68678 12.1875 8.56662 12.3077C8.44645 12.4278 8.28356 12.4953 8.1136 12.4953H6.83196C6.66202 12.4953 6.49912 12.4278 6.37896 12.3077C6.25878 12.1875 6.19122 12.0245 6.19122 11.8546V8.74611H3.13732C2.96951 8.74325 2.80951 8.67438 2.69213 8.55445C2.57474 8.43451 2.50931 8.27316 2.51006 8.10533V6.82377C2.50931 6.65596 2.57474 6.4946 2.69213 6.37467C2.80951 6.25472 2.96951 6.18587 3.13732 6.18299H6.19122V3.13725ZM0.00152826 3.00092V11.9991C-0.0113615 12.3964 0.0573973 12.7922 0.203569 13.162C0.34974 13.5317 0.570166 13.8676 0.851297 14.1487C1.13243 14.4298 1.46829 14.6503 1.83804 14.7964C2.20777 14.9426 2.60364 15.0113 3.00101 14.9985H11.9991C12.3965 15.0113 12.7922 14.9426 13.162 14.7964C13.5317 14.6503 13.8676 14.4298 14.1487 14.1487C14.4298 13.8676 14.6503 13.5317 14.7964 13.162C14.9426 12.7922 15.0114 12.3964 14.9985 11.9991V3.00092C15.0114 2.60355 14.9426 2.20775 14.7964 1.83802C14.6503 1.4683 14.4298 1.13248 14.1487 0.85135C13.8676 0.57022 13.5317 0.349751 13.162 0.20358C12.7922 0.0574076 12.3965 -0.0113617 11.9991 0.00152807H3.00101C2.604 -0.0113324 2.20847 0.0573181 1.83903 0.203242C1.46959 0.349165 1.13403 0.569264 0.852961 0.849951C0.571891 1.13064 0.351327 1.46595 0.204899 1.8352C0.0584733 2.20445 -0.0107905 2.59979 0.00152826 2.99683V3.00092Z" fill="currentColor"/>
</g>
<defs>
<clipPath id="clip0_27_21">
<rect width="15" height="15" fill="currentColor"/>
</clipPath>
</defs>
</svg>
