<svg width="11" height="11" viewBox="0 0 11 11" fill="none" xmlns="http://www.w3.org/2000/svg">
<g clip-path="url(#clip0_15_184)">
<path fill-rule="evenodd" clip-rule="evenodd" d="M4.55004 2.29999C4.55004 2.17534 4.59959 2.05579 4.68774 1.96765C4.77588 1.87951 4.89536 1.82999 5.02001 1.82999H5.96007C6.08473 1.82999 6.20421 1.87951 6.29235 1.96765C6.38049 2.05579 6.43005 2.17534 6.43005 2.29999V4.53399H8.71007C8.83473 4.53399 8.95421 4.58351 9.04235 4.67165C9.13049 4.7598 9.18005 4.87934 9.18005 5.00399V5.94399C9.18005 6.06864 9.13049 6.18819 9.04235 6.27633C8.95421 6.36447 8.83473 6.41399 8.71007 6.41399H6.43005V8.69399C6.43005 8.81864 6.38049 8.93819 6.29235 9.02633C6.20421 9.11447 6.08473 9.16399 5.96007 9.16399H5.02001C4.89536 9.16399 4.77588 9.11447 4.68774 9.02633C4.59959 8.93819 4.55004 8.81864 4.55004 8.69399V6.41399H2.31005C2.18697 6.41189 2.06961 6.36138 1.98351 6.27341C1.89741 6.18544 1.84942 6.06709 1.84997 5.94399V5.00399C1.84942 4.8809 1.89741 4.76255 1.98351 4.67458C2.06961 4.5866 2.18697 4.5361 2.31005 4.53399H4.55004V2.29999ZM0.0100016 2.19999V8.79999C0.000547162 9.09145 0.0509806 9.38176 0.158195 9.65295C0.265409 9.92415 0.427088 10.1705 0.633293 10.3767C0.839497 10.5829 1.08585 10.7446 1.35705 10.8518C1.62824 10.959 1.91861 11.0094 2.21007 11H8.81005C9.10151 11.0094 9.39176 10.959 9.66296 10.8518C9.93415 10.7446 10.1805 10.5829 10.3867 10.3767C10.5929 10.1705 10.7546 9.92415 10.8618 9.65295C10.969 9.38176 11.0195 9.09145 11.01 8.79999V2.19999C11.0195 1.90853 10.969 1.61822 10.8618 1.34703C10.7546 1.07584 10.5929 0.829525 10.3867 0.623321C10.1805 0.417117 9.93415 0.255407 9.66296 0.148193C9.39176 0.0409783 9.10151 -0.00946274 8.81005 -8.33964e-06H2.21007C1.91887 -0.00944125 1.62876 0.0409127 1.35778 0.147945C1.0868 0.254977 0.840673 0.416416 0.634513 0.622295C0.428353 0.828174 0.266573 1.07412 0.159171 1.34496C0.0517698 1.6158 0.000966023 1.90577 0.0100016 2.19699V2.19999Z" fill="white"/>
</g>
<defs>
<clipPath id="clip0_15_184">
<rect width="11" height="11" fill="white"/>
</clipPath>
</defs>
</svg>
