<svg width="40" height="40" viewBox="0 0 40 40" fill="none" xmlns="http://www.w3.org/2000/svg">
<path fill-rule="evenodd" clip-rule="evenodd" d="M35.5807 37.35H4.97384C4.43534 37.35 4 36.9103 4 36.3673V24.5966C4 24.0536 4.43534 23.6139 4.97384 23.6139H10.8003V27.8262H8.77216C8.35255 27.8262 8.0125 28.1697 8.0125 28.5926V32.3714C8.0125 32.7943 8.35255 33.1377 8.77216 33.1377H31.7833C32.202 33.1377 32.5421 32.7943 32.5421 32.3714V28.5926C32.5421 28.1697 32.202 27.8262 31.7833 27.8262H29.7552V23.6139H35.5807C36.1192 23.6139 36.5546 24.0536 36.5546 24.5966V36.3673C36.5546 36.9103 36.1192 37.35 35.5807 37.35ZM12.9062 13.9904C12.9062 12.8903 13.79 11.9994 14.8801 11.9994H25.6745C26.7646 11.9994 27.6475 12.8903 27.6475 13.9904V31.0435H12.9062V13.9904ZM20.6409 24.5383H19.6348C19.2991 24.5383 19.0045 24.2982 18.9345 23.9671C18.9066 23.8382 18.7868 23.7428 18.6487 23.7428H17.4991C17.4135 23.7428 17.3313 23.7799 17.2736 23.8444C17.2185 23.9053 17.1923 23.9838 17.201 24.0633C17.3173 25.242 18.2422 26.1567 19.4118 26.2635V27.3441C19.4118 27.5101 19.5456 27.6443 19.7091 27.6443H20.8446C21.0081 27.6443 21.1418 27.5101 21.1418 27.3441V26.2476C22.6061 26.0154 23.6315 24.6831 23.4873 23.1839C23.3483 21.7625 22.0746 20.6483 20.5867 20.6483H19.8463C19.5465 20.6483 19.2597 20.5194 19.0578 20.2942C18.8532 20.0664 18.7571 19.7716 18.7894 19.4643C18.8427 18.9266 19.3367 18.5055 19.9127 18.5055H20.9189C21.2546 18.5055 21.5492 18.7447 21.6191 19.075C21.648 19.2047 21.7678 19.3001 21.905 19.3001H23.0546C23.1411 19.3001 23.2233 19.2621 23.2801 19.1986C23.3352 19.1368 23.3614 19.0591 23.3535 18.9796C23.2364 17.8018 22.3106 16.8863 21.1418 16.7794V15.6988C21.1418 15.5328 21.0081 15.3986 20.8446 15.3986H19.7091C19.5456 15.3986 19.4118 15.5328 19.4118 15.6988V16.8147C18.1469 17.0549 17.1862 18.0667 17.0682 19.2957C16.9904 20.1 17.2421 20.8708 17.778 21.4676C18.3069 22.0565 19.0613 22.3946 19.8463 22.3946H20.7074C21.0072 22.3946 21.2957 22.5235 21.4959 22.7487C21.7004 22.9765 21.7957 23.2714 21.7634 23.5786C21.7101 24.1172 21.2161 24.5383 20.6409 24.5383ZM20.6715 10.0023C20.4661 10.2513 20.0876 10.2513 19.883 10.0023L16.277 5.61875C15.9999 5.28148 16.2377 4.77117 16.6713 4.77117H18.6705V0.534152C18.6705 0.239265 18.9066 0 19.1994 0H21.3551C21.6471 0 21.884 0.239265 21.884 0.534152V4.77117H23.8833C24.3169 4.77117 24.5547 5.28148 24.2775 5.61875L20.6715 10.0023Z" fill="black"/>
</svg>
