<svg width="40" height="40" viewBox="0 0 40 40" fill="none" xmlns="http://www.w3.org/2000/svg">
<path fill-rule="evenodd" clip-rule="evenodd" d="M35.6216 37.74H4.97519C4.43643 37.74 4 37.2957 4 36.7471V24.854C4 24.3055 4.43643 23.8611 4.97519 23.8611H10.8089V28.117H8.77888C8.35907 28.117 8.01797 28.4642 8.01797 28.8917V32.7103C8.01797 33.137 8.35907 33.4841 8.77888 33.4841H31.8188C32.2386 33.4841 32.5797 33.137 32.5797 32.7103V28.8917C32.5797 28.4642 32.2386 28.117 31.8188 28.117H29.7888V23.8611H35.6216C36.1603 23.8611 36.5968 24.3055 36.5968 24.854V36.7471C36.5968 37.2957 36.1603 37.74 35.6216 37.74ZM12.9184 14.1375C12.9184 13.0271 13.8026 12.127 14.8942 12.127H25.7026C26.7941 12.127 27.6784 13.0271 27.6784 14.1375V31.3677H12.9184V14.1375ZM20.6622 24.7948H19.6556C19.3197 24.7948 19.0241 24.5528 18.9541 24.218C18.9261 24.0873 18.8063 23.9919 18.6672 23.9919H17.5171C17.4305 23.9919 17.3483 24.0299 17.2915 24.0943C17.2364 24.1562 17.2101 24.2357 17.2189 24.3152C17.3343 25.5059 18.2605 26.4307 19.4325 26.5385V27.6303C19.4325 27.7973 19.5663 27.9342 19.7299 27.9342H20.8669C21.0304 27.9342 21.1643 27.7973 21.1643 27.6303V26.5226C22.631 26.2885 23.6569 24.9423 23.5126 23.4274C23.3735 21.9903 22.0983 20.8658 20.608 20.8658H19.8672C19.5672 20.8658 19.2795 20.7342 19.0774 20.508C18.8728 20.2766 18.7766 19.9798 18.8089 19.6689C18.8632 19.1256 19.3573 18.6999 19.9337 18.6999H20.9412C21.2771 18.6999 21.5718 18.941 21.6427 19.2758C21.6707 19.4074 21.7905 19.5028 21.9287 19.5028H23.0788C23.1662 19.5028 23.2485 19.4648 23.3053 19.4003C23.3604 19.3385 23.3866 19.259 23.3788 19.1795C23.2607 17.9888 22.3345 17.0648 21.1643 16.9562V15.8644C21.1643 15.6965 21.0304 15.5605 20.8669 15.5605H19.7299C19.5663 15.5605 19.4325 15.6965 19.4325 15.8644V16.9915C18.1652 17.2344 17.2031 18.2573 17.0851 19.4984C17.0072 20.311 17.26 21.0901 17.7961 21.6926C18.3261 22.2879 19.0809 22.6289 19.8672 22.6289H20.7287C21.0296 22.6289 21.3182 22.7596 21.5193 22.9875C21.724 23.2181 21.8193 23.5149 21.787 23.8258C21.7328 24.3699 21.2386 24.7948 20.6622 24.7948ZM23.8624 5.47465H21.8867V9.75526C21.8867 10.0529 21.6523 10.295 21.3637 10.295H19.2331C18.9436 10.295 18.7101 10.0529 18.7101 9.75526V5.47465H16.7343C16.3049 5.47465 16.0705 4.95879 16.3443 4.61782L19.9083 0.188812C20.1103 -0.0629372 20.4856 -0.0629372 20.6885 0.188812L24.2516 4.61871C24.5254 4.95879 24.291 5.47465 23.8624 5.47465Z" fill="black"/>
</svg>
