<svg width="20" height="24" viewBox="0 0 20 24" fill="none" xmlns="http://www.w3.org/2000/svg">
<g clip-path="url(#clip0_13_175)">
<path d="M16.599 12.6449C16.5885 10.7812 17.4531 9.37461 19.2031 8.33867C18.224 6.97266 16.7448 6.22109 14.7917 6.07383C12.9427 5.93164 10.9219 7.125 10.1823 7.125C9.40104 7.125 7.60938 6.12461 6.20313 6.12461C3.29688 6.17031 0.208336 8.38437 0.208336 12.8887C0.208336 14.2191 0.458336 15.5936 0.958336 17.0121C1.625 18.8758 4.03125 23.4461 6.54167 23.3699C7.85417 23.3395 8.78125 22.4609 10.4896 22.4609C12.1458 22.4609 13.0052 23.3699 14.4688 23.3699C17 23.3344 19.1771 19.1805 19.8125 17.3117C16.4167 15.7527 16.599 12.7414 16.599 12.6449ZM13.651 4.30664C15.0729 2.66133 14.9427 1.16328 14.901 0.625C13.6458 0.696094 12.1927 1.45781 11.3646 2.39727C10.4531 3.40273 9.91667 4.64687 10.0313 6.04844C11.3906 6.15 12.6302 5.46953 13.651 4.30664Z" fill="currentColor"/>
</g>
<defs>
<clipPath id="clip0_13_175">
<rect width="20" height="24" fill="white"/>
</clipPath>
</defs>
</svg>
