<svg width="60" height="88" viewBox="0 0 60 88" fill="none" xmlns="http://www.w3.org/2000/svg">
<path d="M29.82 35.62H6.82L7.04 38.08L9.29 63.36H41.09L40.03 75.26L29.79 78.02L19.57 75.26L18.92 67.94H9.71L10.99 82.34L29.78 87.56H29.82L48.6 82.35L48.74 80.8L50.9 56.64L51.12 54.18H17.68L16.84 44.78H51.95L52.13 42.72L52.55 38.07L52.77 35.61H29.82V35.62ZM8.93 0V4.61H4.67V0H0V13.95H4.66V9.28H8.92V13.95H13.58V0H8.92H8.93ZM15.62 0V4.63H19.72V13.95H24.38V4.63H28.49V0H15.62ZM41.37 0L38.38 4.9L35.4 0H30.53V13.95H35.1V7.04L38.31 12H38.39L41.6 7.04V13.95H46.24V0H41.37ZM48.56 0V13.95H59.78V9.34H53.22V0H48.56Z" fill="#3673FE"/>
</svg>
