<svg width="40" height="40" viewBox="0 0 40 40" fill="none" xmlns="http://www.w3.org/2000/svg">
<g clip-path="url(#clip0_3_24)">
<path fill-rule="evenodd" clip-rule="evenodd" d="M37.3351 14.8307L29.9508 38.1034C29.5715 39.2988 28.4777 40.1014 27.2284 40.1014C26.9345 40.1014 26.6433 40.0555 26.3611 39.9657L11.3121 35.1581H4.85718C3.28164 35.1581 2 33.872 2 32.2911V7.86707C2 6.28614 3.28164 5 4.85718 5H21.5779C23.0968 5 24.3389 6.19626 24.427 7.6981L35.4791 11.2294C36.98 11.7084 37.8132 13.3244 37.3351 14.8307ZM21.8951 7.86707C21.8951 7.69091 21.7531 7.54891 21.5779 7.54891H4.85718C4.68192 7.54891 4.53992 7.69091 4.53992 7.86707V32.2911C4.53992 32.4663 4.68192 32.6092 4.85718 32.6092H21.5779C21.7531 32.6092 21.8951 32.4663 21.8951 32.2911V7.86707ZM14.1459 24.9257C14.2116 25.2969 14.27 25.5737 14.3149 25.6914C14.5702 26.3646 15.6756 27.0027 15.3566 27.5294C15.0375 28.0552 14.6484 27.3874 13.3128 27.4431C11.9754 27.4989 11.6438 28.1972 11.2816 27.6984C10.9203 27.2005 11.97 26.4734 12.1687 25.7813C12.2028 25.6591 12.2388 25.3796 12.2729 25.0039C10.8601 25.7265 9.08948 25.5368 7.85367 24.3963C6.26645 22.9304 6.16399 20.4507 7.62539 18.8581C9.02477 17.332 12.7403 13.612 12.7403 13.612C12.7403 13.612 16.7497 17.0102 18.2713 18.415C19.8585 19.8809 19.961 22.3597 18.5005 23.9523C17.3626 25.1926 15.6145 25.5288 14.1459 24.9257Z" fill="black"/>
</g>
<defs>
<clipPath id="clip0_3_24">
<rect width="40" height="40" fill="white"/>
</clipPath>
</defs>
</svg>
