<svg width="40" height="40" viewBox="0 0 40 40" fill="none" xmlns="http://www.w3.org/2000/svg">
<path fill-rule="evenodd" clip-rule="evenodd" d="M36.8111 38.171H2.6981C2.31185 38.171 2 37.8591 2 37.4737V35.2206C2 34.836 2.31185 34.5233 2.6981 34.5233H36.8111C37.1973 34.5233 37.51 34.836 37.51 35.2206V37.4737C37.51 37.8591 37.1973 38.171 36.8111 38.171ZM27.4182 18.4237L26.71 17.4505C26.4567 17.1028 26.7058 16.6137 27.1372 16.6137H32.5531C32.9845 16.6137 33.2337 17.1028 32.9803 17.4505L32.273 18.4237C32.0281 18.7598 31.8968 19.1644 31.8968 19.5799V29.9276C31.8968 30.3431 32.0281 30.7478 32.273 31.0839L32.9803 32.0562C33.2337 32.4048 32.9845 32.8931 32.5531 32.8931H27.1372C26.7058 32.8931 26.4567 32.4048 26.71 32.0562L27.4182 31.0839C27.6623 30.7478 27.7944 30.3431 27.7944 29.9276V19.5799C27.7944 19.1644 27.6623 18.7598 27.4182 18.4237ZM20.4623 31.5872H19.0452C18.8538 31.5872 18.6982 31.4317 18.6982 31.2419V30.0798C17.2845 29.8089 16.2177 28.6359 16.094 27.203C16.0848 27.1102 16.1166 27.0199 16.1809 26.9488C16.2486 26.8761 16.344 26.8343 16.4434 26.8343H17.8672C18.0353 26.8343 18.1807 26.9488 18.205 27.1026C18.2953 27.6469 18.7601 28.0407 19.3111 28.0407H20.1287C20.7089 28.0407 21.2147 27.6411 21.3025 27.111C21.356 26.7841 21.2649 26.4514 21.0517 26.2022C20.8385 25.9514 20.5267 25.8059 20.1973 25.8059H19.4515C17.7301 25.8059 16.2562 24.5326 16.0973 22.9066C15.9343 21.252 17.073 19.7363 18.6982 19.4236V18.2649C18.6982 18.0751 18.8538 17.9196 19.0452 17.9196H20.4623C20.6529 17.9196 20.8084 18.0751 20.8084 18.2649V19.4244C22.223 19.6962 23.2906 20.8691 23.4152 22.3021C23.4236 22.3949 23.3926 22.486 23.3274 22.5571C23.2597 22.6298 23.1644 22.6725 23.0657 22.6725H21.6403C21.4731 22.6725 21.3276 22.5563 21.3034 22.4024C21.2139 21.8582 20.7491 21.4644 20.1973 21.4644H19.3805C18.7994 21.4644 18.2944 21.8623 18.2067 22.3924C18.1523 22.7201 18.2426 23.052 18.4558 23.3028C18.6707 23.5553 18.9817 23.7 19.3111 23.7H20.1973C21.106 23.7 21.978 24.0862 22.59 24.7592C23.2104 25.4423 23.5013 26.3243 23.4118 27.2431C23.2772 28.6201 22.2347 29.7437 20.8084 30.0589V31.2419C20.8084 31.4317 20.6529 31.5872 20.4623 31.5872ZM7.23696 18.4237L6.52884 17.4505C6.27552 17.1028 6.52466 16.6137 6.95605 16.6137H12.3719C12.8033 16.6137 13.0533 17.1028 12.8 17.4505L12.0919 18.4237C11.8469 18.7598 11.7156 19.1644 11.7156 19.5799V29.9276C11.7156 30.3431 11.8469 30.7478 12.0919 31.0839L12.8 32.0562C13.0533 32.4048 12.8033 32.8931 12.3719 32.8931H6.95605C6.52466 32.8931 6.27552 32.4048 6.52884 32.0562L7.23696 31.0839C7.48109 30.7478 7.61318 30.3431 7.61318 29.9276V19.5799C7.61318 19.1644 7.48109 18.7598 7.23696 18.4237ZM36.0193 15.0177H3.48983C3.14622 15.0177 2.86865 14.7401 2.86865 14.3973V13.0496C2.86865 12.7386 3.04338 12.4577 3.31844 12.3156L19.1347 3.16428C19.5134 2.94524 19.9807 2.94524 20.3595 3.16428L36.1907 12.3156C36.4691 12.4577 36.6414 12.7386 36.6414 13.053V14.3973C36.6414 14.7401 36.363 15.0177 36.0193 15.0177Z" fill="black"/>
</svg>
