<svg width="20" height="24" viewBox="0 0 20 24" fill="none" xmlns="http://www.w3.org/2000/svg">
<g clip-path="url(#clip0_13_172)">
<path d="M3.85801 17.8322C3.85801 18.4264 4.34297 18.9113 4.93965 18.9113H6.17617V21.9684C6.17617 22.7428 6.79824 23.375 7.5625 23.375C8.3293 23.375 8.94883 22.7453 8.94883 21.9684V18.9088H11.107V21.9658C11.107 22.7402 11.7291 23.3725 12.4934 23.3725C13.2602 23.3725 13.8797 22.7428 13.8797 21.9658V18.9088H15.1162C15.7129 18.9088 16.1979 18.4238 16.1979 17.8297V7.79532H3.85801V17.8322ZM12.925 2.59532L14.065 0.944927C14.1311 0.848443 14.1158 0.718951 14.027 0.655474C13.9381 0.594537 13.8111 0.625006 13.7451 0.72149L12.5619 2.4379C11.7824 2.13067 10.9141 1.96055 10.0025 1.96055C9.09102 1.96055 8.22266 2.13067 7.44317 2.4379L6.25996 0.724029C6.19395 0.627545 6.06699 0.594537 5.97813 0.658013C5.88926 0.718951 5.87402 0.845904 5.94004 0.947466L7.08008 2.59786C5.26719 3.44083 3.99766 5.0379 3.83516 6.90411H16.175C16.0074 5.03536 14.7354 3.43829 12.925 2.59532ZM7.39746 5.19786C7.26238 5.19786 7.13032 5.1578 7.018 5.08275C6.90568 5.0077 6.81814 4.90103 6.76645 4.77622C6.71475 4.65142 6.70122 4.51409 6.72758 4.3816C6.75393 4.24911 6.81898 4.12741 6.9145 4.03189C7.01002 3.93637 7.13172 3.87132 7.26421 3.84497C7.3967 3.81861 7.53403 3.83214 7.65884 3.88383C7.78364 3.93553 7.89031 4.02307 7.96536 4.13539C8.04041 4.24771 8.08047 4.37976 8.08047 4.51485C8.08 4.69585 8.00789 4.8693 7.8799 4.99729C7.75192 5.12528 7.57846 5.19739 7.39746 5.19786ZM12.6889 5.19786C12.5538 5.19786 12.4217 5.1578 12.3094 5.08275C12.1971 5.0077 12.1095 4.90103 12.0579 4.77622C12.0062 4.65142 11.9926 4.51409 12.019 4.3816C12.0453 4.24911 12.1104 4.12741 12.2059 4.03189C12.3014 3.93637 12.4231 3.87132 12.5556 3.84497C12.6881 3.81861 12.8254 3.83214 12.9502 3.88383C13.075 3.93553 13.1817 4.02307 13.2568 4.13539C13.3318 4.24771 13.3719 4.37976 13.3719 4.51485C13.3714 4.69585 13.2993 4.8693 13.1713 4.99729C13.0433 5.12528 12.8699 5.19739 12.6889 5.19786ZM18.3611 7.75469C17.5943 7.75469 16.9748 8.38438 16.9748 9.16133V14.6559C16.9748 15.4303 17.5969 16.0625 18.3611 16.0625C19.1279 16.0625 19.7475 15.4328 19.7475 14.6559V9.15879C19.75 8.38184 19.1305 7.75469 18.3611 7.75469ZM1.63887 7.75469C0.872072 7.75469 0.252541 8.38438 0.252541 9.16133V14.6559C0.252541 15.4303 0.874611 16.0625 1.63887 16.0625C2.40567 16.0625 3.0252 15.4328 3.0252 14.6559V9.15879C3.0252 8.38184 2.40313 7.75469 1.63887 7.75469Z" fill="currentColor"/>
</g>
<defs>
<clipPath id="clip0_13_172">
<rect width="20" height="24" fill="white"/>
</clipPath>
</defs>
</svg>
