<svg xmlns="http://www.w3.org/2000/svg" width="396.719" height="52.38" viewBox="0 0 396.719 52.38">
  <path id="Mobile_Bet" data-name="Mobile Bet"  fill="currentColor" d="M320.526,1998.87h13.042v-39.3l10.032,39.3h11.8l10.05-39.3v39.3H378.5v-51.54H357.566l-8.019,31.36-8.077-31.36H320.526v51.54Zm70.446-3.72q5.555,4.56,14.554,4.57,10.09,0,15.8-5.51a20.322,20.322,0,0,0,1.107-27.01q-5.73-6.51-16.945-6.51-9.808,0-15.574,5.54a18.67,18.67,0,0,0-5.766,14.08,18.358,18.358,0,0,0,6.821,14.84h0Zm9.562-22.21a6.488,6.488,0,0,1,5.168-2.4,6.242,6.242,0,0,1,4.957,2.37q2,2.37,2,7.22,0,5.2-1.986,7.56a6.62,6.62,0,0,1-10.16-.03q-2.022-2.4-2.022-7.39Q398.5,1975.35,400.534,1972.94Zm31.669,25.93H445.6v-5.52a18.237,18.237,0,0,0,5.133,4.75,14.762,14.762,0,0,0,6.891,1.62,14.516,14.516,0,0,0,8-2.31,15.129,15.129,0,0,0,5.642-6.96,26.648,26.648,0,0,0,2.04-10.77q0-9.18-4.465-14.08a14.608,14.608,0,0,0-11.285-4.91,15.653,15.653,0,0,0-6.03,1.13,14.12,14.12,0,0,0-4.869,3.37v-17.86H432.2v51.54Zm16.189-25.33a5.977,5.977,0,0,1,4.764-2.16,5.18,5.18,0,0,1,4.131,2.07c1.136,1.39,1.705,3.55,1.705,6.51q0,5.025-1.74,7.15a5.355,5.355,0,0,1-4.307,2.13,5.729,5.729,0,0,1-4.588-2.16q-1.811-2.16-1.81-6.98Q446.547,1975.705,448.392,1973.54Zm30.491-16.47h14.309v-9.74H478.883v9.74Zm0,41.8h14.309v-37.33H478.883v37.33Zm22.142,0h14.343v-51.54H501.025v51.54Zm63.133-16.73q0-7.38-2.425-11.99a16.4,16.4,0,0,0-7.067-7.03q-4.641-2.43-12.656-2.43-9.879,0-15.486,5.42t-5.608,14.16a20.063,20.063,0,0,0,2.795,10.71,17.13,17.13,0,0,0,7.049,6.64q4.253,2.1,11.672,2.1,8.542,0,13.113-2.45a20.2,20.2,0,0,0,7.805-8.07l-14.1-1.3a9.464,9.464,0,0,1-2.5,2.36,8.163,8.163,0,0,1-4.008,1.05,6.8,6.8,0,0,1-5.414-2.42,9.289,9.289,0,0,1-1.863-5.14h28.687v-1.61Zm-28.652-5.24a9.931,9.931,0,0,1,1.652-5.03,6.994,6.994,0,0,1,10.213-.91q1.81,1.785,2.233,5.94h-14.1Zm56.623,21.97h27.492a69.058,69.058,0,0,0,7.137-.7,16.862,16.862,0,0,0,6.046-1.69,13.722,13.722,0,0,0,5.1-5.06,14.064,14.064,0,0,0,1.863-7.21,12.61,12.61,0,0,0-2.619-8.17q-2.619-3.255-8.174-4.59a12.592,12.592,0,0,0,5.555-3.45,11.51,11.51,0,0,0,2.848-7.84,11.97,11.97,0,0,0-3.991-9.14q-3.99-3.69-11.443-3.69H592.129v51.54Zm16.066-41.1h7.031c2.414,0,4.108.43,5.08,1.27a4.41,4.41,0,0,1,1.459,3.52,4.658,4.658,0,0,1-1.459,3.7q-1.458,1.29-5.185,1.29H608.2v-9.78Zm0,19.59h8.086q4.184,0,5.853,1.38a4.565,4.565,0,0,1,1.67,3.68,4.916,4.916,0,0,1-1.687,3.92q-1.687,1.455-5.8,1.46H608.2v-10.44Zm78.6,4.78q0-7.38-2.425-11.99a16.4,16.4,0,0,0-7.067-7.03q-4.641-2.43-12.656-2.43-9.879,0-15.486,5.42t-5.608,14.16a20.063,20.063,0,0,0,2.8,10.71,17.13,17.13,0,0,0,7.049,6.64q4.254,2.1,11.672,2.1,8.542,0,13.113-2.45a20.2,20.2,0,0,0,7.805-8.07l-14.1-1.3a9.464,9.464,0,0,1-2.5,2.36,8.163,8.163,0,0,1-4.008,1.05,6.8,6.8,0,0,1-5.414-2.42,9.3,9.3,0,0,1-1.863-5.14H686.8v-1.61Zm-28.652-5.24a9.931,9.931,0,0,1,1.652-5.03,6.994,6.994,0,0,1,10.213-.91q1.811,1.785,2.233,5.94h-14.1Zm36.345-22.22v6.86h-5.274v10.47h5.274v13.13c0,4.17.4,7.18,1.212,9.05a8.384,8.384,0,0,0,3.745,4.16q2.53,1.365,7.875,1.37a46.817,46.817,0,0,0,9.914-1.16l-1.055-9.88a15.623,15.623,0,0,1-4.43.91,2.626,2.626,0,0,1-2.461-1.19,7.139,7.139,0,0,1-.457-3.16v-13.23h7.875v-10.47h-7.875v-14.21Z" transform="translate(-320.531 -1947.34)"/>
</svg>
