<svg width="20" height="20" viewBox="0 0 20 20" fill="none" xmlns="http://www.w3.org/2000/svg">
<g clip-path="url(#clip0_67_3365)">
<path d="M10 1C8.81653 1.00157 7.64496 1.23624 6.55218 1.69059C5.45939 2.14494 4.4668 2.81008 3.63107 3.64804C2.79535 4.48599 2.13285 5.48035 1.68141 6.57434C1.22997 7.66833 0.998431 8.84053 1.00001 10.024C1.47401 21.994 18.528 21.99 19 10.024C19.0016 8.84053 18.77 7.66833 18.3186 6.57434C17.8672 5.48035 17.2047 4.48599 16.3689 3.64804C15.5332 2.81008 14.5406 2.14494 13.4478 1.69059C12.3551 1.23624 11.1835 1.00157 10 1ZM10.563 3.754L12.42 2.513C14.0108 3.03387 15.395 4.04656 16.373 5.405L15.773 7.548L12.839 8.491L10.563 6.813V3.754ZM7.58001 2.513L9.43801 3.754V6.813L7.16001 8.491L4.22601 7.548L3.62601 5.405C4.60428 4.04639 5.98887 3.03368 7.58001 2.513ZM3.65001 14.674C2.65702 13.323 2.1226 11.6896 2.12501 10.013L3.88001 8.621L6.81201 9.564L7.68701 12.3L5.87201 14.77L3.65001 14.674ZM12.445 17.525C10.8568 18.047 9.14322 18.047 7.55501 17.525L6.78001 15.431L8.60001 12.957H11.4L13.217 15.431L12.445 17.525ZM16.35 14.674L14.128 14.765L12.313 12.3L13.188 9.569L16.12 8.627L17.874 10.018C17.8757 11.6928 17.3417 13.3243 16.35 14.674Z" fill="#212429"/>
</g>
<defs>
<clipPath id="clip0_67_3365">
<rect width="20" height="20" fill="white"/>
</clipPath>
</defs>
</svg>
