<svg width="20" height="20" viewBox="0 0 20 20" fill="none" xmlns="http://www.w3.org/2000/svg">
<g clip-path="url(#clip0_67_3363)">
<path d="M18.7432 9.36371L10.6432 1.26371C10.5596 1.1801 10.4604 1.11378 10.3512 1.06854C10.242 1.02329 10.1249 1 10.0067 1C9.8885 1 9.77144 1.02329 9.66223 1.06854C9.55302 1.11378 9.45379 1.1801 9.37021 1.26371H9.36421L1.26421 9.36371C1.13804 9.48964 1.05211 9.6502 1.01731 9.82504C0.982516 9.99988 1.00043 10.1811 1.06877 10.3457C1.13711 10.5104 1.25281 10.651 1.40119 10.7498C1.54957 10.8486 1.72395 10.9011 1.90221 10.9007H2.80221V17.4687C2.81837 17.8898 3.00059 18.2873 3.30904 18.5744C3.61749 18.8615 4.02707 19.0148 4.44821 19.0007H6.84821C7.08691 19.0007 7.31582 18.9059 7.48461 18.7371C7.65339 18.5683 7.74821 18.3394 7.74821 18.1007V13.6917C7.74821 13.453 7.84303 13.2241 8.01182 13.0553C8.1806 12.8865 8.40952 12.7917 8.64821 12.7917H11.3482C11.5869 12.7917 11.8158 12.8865 11.9846 13.0553C12.1534 13.2241 12.2482 13.453 12.2482 13.6917V18.1007C12.2482 18.3394 12.343 18.5683 12.5118 18.7371C12.6806 18.9059 12.9095 19.0007 13.1482 19.0007H15.5482C15.9694 19.0153 16.3792 18.8626 16.688 18.5758C16.9968 18.2891 17.1795 17.8918 17.1962 17.4707V10.9007H18.0962C18.2748 10.9015 18.4495 10.8493 18.5983 10.7505C18.747 10.6517 18.863 10.5109 18.9316 10.346C19.0001 10.1811 19.018 9.99959 18.983 9.82449C18.948 9.64939 18.8618 9.48865 18.7352 9.36271" fill="#212429"/>
</g>
<defs>
<clipPath id="clip0_67_3363">
<rect width="20" height="20" fill="white"/>
</clipPath>
</defs>
</svg>
