<svg width="20" height="20" viewBox="0 0 20 20" fill="none" xmlns="http://www.w3.org/2000/svg">
<g clip-path="url(#clip0_67_3369)">
<path d="M18.3572 4.857H14.7572C15.0097 4.47572 15.144 4.02833 15.1432 3.571C15.141 2.8896 14.8694 2.23674 14.3874 1.75501C13.9055 1.27328 13.2526 1.00185 12.5712 1C12.0728 1.00336 11.5818 1.12105 11.1361 1.344C10.6904 1.56696 10.3017 1.88923 10.0002 2.286C9.69857 1.88923 9.30995 1.56696 8.86422 1.344C8.41848 1.12105 7.92753 1.00336 7.42916 1C6.74776 1.00185 6.09479 1.27328 5.61287 1.75501C5.13096 2.23674 4.85927 2.8896 4.85716 3.571C4.85632 4.02833 4.99061 4.47572 5.24316 4.857H1.64316C1.55735 4.85174 1.4714 4.86477 1.39101 4.89522C1.31061 4.92567 1.2376 4.97286 1.17681 5.03365C1.11602 5.09444 1.06884 5.16745 1.03838 5.24785C1.00793 5.32824 0.994901 5.41419 1.00016 5.5V9.357C0.994901 9.44281 1.00793 9.52876 1.03838 9.60915C1.06884 9.68955 1.11602 9.76256 1.17681 9.82335C1.2376 9.88414 1.31061 9.93132 1.39101 9.96178C1.4714 9.99223 1.55735 10.0053 1.64316 10H2.92916V18.357C2.92391 18.4427 2.93692 18.5286 2.96731 18.6089C2.99771 18.6892 3.0448 18.7622 3.10548 18.823C3.16616 18.8837 3.23904 18.9309 3.31932 18.9615C3.39959 18.992 3.48543 19.0051 3.57116 19H16.4292C16.5149 19.0051 16.6007 18.992 16.681 18.9615C16.7613 18.9309 16.8342 18.8837 16.8948 18.823C16.9555 18.7622 17.0026 18.6892 17.033 18.6089C17.0634 18.5286 17.0764 18.4427 17.0712 18.357V10H18.3572C18.443 10.0053 18.5289 9.99223 18.6093 9.96178C18.6897 9.93132 18.7627 9.88414 18.8235 9.82335C18.8843 9.76256 18.9315 9.68955 18.9619 9.60915C18.9924 9.52876 19.0054 9.44281 19.0002 9.357V5.5C19.0054 5.41419 18.9924 5.32824 18.9619 5.24785C18.9315 5.16745 18.8843 5.09444 18.8235 5.03365C18.7627 4.97286 18.6897 4.92567 18.6093 4.89522C18.5289 4.86477 18.443 4.85174 18.3572 4.857ZM8.07116 6.143H11.9292V8.714H8.07116V6.143ZM12.5712 2.286C12.743 2.28121 12.914 2.31091 13.0742 2.37336C13.2343 2.43581 13.3804 2.52973 13.5036 2.64957C13.6268 2.76941 13.7248 2.91275 13.7917 3.0711C13.8586 3.22945 13.893 3.3996 13.893 3.5715C13.893 3.7434 13.8586 3.91355 13.7917 4.0719C13.7248 4.23025 13.6268 4.37359 13.5036 4.49343C13.3804 4.61327 13.2343 4.70719 13.0742 4.76964C12.914 4.83209 12.743 4.86179 12.5712 4.857H10.6432V4.214C10.6385 3.95954 10.6853 3.70677 10.7805 3.47077C10.8758 3.23477 11.0176 3.02039 11.1976 2.84043C11.3775 2.66047 11.5919 2.51863 11.8279 2.42337C12.0639 2.32811 12.3167 2.28139 12.5712 2.286ZM6.14316 3.571C6.14422 3.23035 6.28008 2.90397 6.52105 2.66318C6.76202 2.4224 7.08851 2.28679 7.42916 2.286C7.68362 2.28139 7.9364 2.32811 8.17239 2.42337C8.40839 2.51863 8.62277 2.66047 8.80273 2.84043C8.98269 3.02039 9.12453 3.23477 9.21979 3.47077C9.31505 3.70677 9.36177 3.95954 9.35716 4.214V4.857H7.42916C7.08834 4.85621 6.7617 4.72046 6.5207 4.47946C6.2797 4.23846 6.14395 3.91182 6.14316 3.571ZM8.71416 10H11.2852V17.714H8.71416V10Z" fill="#212429"/>
</g>
<defs>
<clipPath id="clip0_67_3369">
<rect width="20" height="20" fill="white"/>
</clipPath>
</defs>
</svg>
