<svg width="20" height="20" viewBox="0 0 20 20" fill="none" xmlns="http://www.w3.org/2000/svg">
<g clip-path="url(#clip0_67_3368)">
<path d="M18.7488 4.92999L15.9338 15.564C15.9033 15.6753 15.86 15.7826 15.8048 15.884C15.8007 15.7366 15.7846 15.5898 15.7568 15.445L13.4648 4.68699C13.3155 3.98735 12.8947 3.37556 12.2947 2.98595C11.6948 2.59634 10.9647 2.46076 10.2648 2.60899L7.84882 3.12199L8.11483 2.11599C8.21667 1.73142 8.46711 1.40307 8.81105 1.20316C9.15499 1.00324 9.56426 0.948147 9.94882 1.04999L17.6828 3.09599C18.0674 3.19783 18.3957 3.44827 18.5957 3.79221C18.7956 4.13615 18.8507 4.54542 18.7488 4.92999ZM14.5828 15.695C14.6655 16.0839 14.5905 16.4898 14.3741 16.8234C14.1577 17.1569 13.8177 17.391 13.4288 17.474L5.60383 19.141C5.2149 19.2237 4.80904 19.1486 4.47545 18.9322C4.14187 18.7158 3.90784 18.3758 3.82483 17.987L1.53282 7.22799C1.4501 6.83906 1.52519 6.4332 1.74158 6.09961C1.95797 5.76603 2.29796 5.53201 2.68683 5.44899L10.5118 3.78199C10.9008 3.69926 11.3066 3.77435 11.6402 3.99074C11.9738 4.20713 12.2078 4.54712 12.2908 4.93599L14.5828 15.695ZM10.6628 9.79499L7.50383 7.60799C7.42019 7.55867 7.3211 7.54251 7.22612 7.56269C7.13115 7.58287 7.04719 7.63792 6.99083 7.71699L4.95882 11.007C4.69103 11.3859 4.56114 11.8452 4.5908 12.3083C4.62046 12.7714 4.80787 13.2103 5.12182 13.552C5.34409 13.8183 5.63177 14.0221 5.95664 14.1436C6.28151 14.2651 6.63238 14.3001 6.97483 14.245C7.14344 14.2222 7.30412 14.1593 7.44334 14.0615C7.58256 13.9637 7.69625 13.8339 7.77483 13.683C7.78649 13.6642 7.80359 13.6494 7.82385 13.6406C7.84411 13.6318 7.86658 13.6293 7.88827 13.6335C7.90997 13.6378 7.92986 13.6485 7.94532 13.6643C7.96078 13.6801 7.97107 13.7002 7.97483 13.722L8.07483 14.181C8.12773 14.428 8.11497 14.6845 8.03783 14.925L7.88882 15.391C7.88148 15.414 7.8803 15.4385 7.8854 15.4621C7.8905 15.4857 7.90171 15.5076 7.91791 15.5255C7.93411 15.5434 7.95472 15.5568 7.97769 15.5642C8.00067 15.5717 8.0252 15.573 8.04883 15.568L9.74282 15.207C9.76647 15.2019 9.78837 15.1908 9.80634 15.1746C9.82431 15.1584 9.83771 15.1378 9.84521 15.1148C9.8527 15.0918 9.85402 15.0673 9.84904 15.0436C9.84406 15.0199 9.83295 14.998 9.81682 14.98L9.49183 14.616C9.32148 14.428 9.20323 14.1988 9.14883 13.951L9.04882 13.487C9.04446 13.4666 9.04619 13.4454 9.05381 13.426C9.06144 13.4066 9.07461 13.3899 9.09168 13.3779C9.10876 13.366 9.12898 13.3593 9.14981 13.3588C9.17065 13.3583 9.19117 13.3639 9.20883 13.375C9.33538 13.4837 9.4875 13.5584 9.65088 13.5922C9.81426 13.626 9.98355 13.6176 10.1428 13.568C10.4689 13.4844 10.7692 13.3215 11.0171 13.0938C11.265 12.8661 11.4528 12.5807 11.5638 12.263C11.734 11.8114 11.7368 11.3138 11.5717 10.8603C11.4066 10.4068 11.0845 10.0275 10.6638 9.79099" fill="#212429"/>
</g>
<defs>
<clipPath id="clip0_67_3368">
<rect width="20" height="20" fill="white"/>
</clipPath>
</defs>
</svg>
