<svg width="20" height="20" viewBox="0 0 20 20" fill="none" xmlns="http://www.w3.org/2000/svg">
<g clip-path="url(#clip0_67_3367)">
<path d="M14.2 8.384C14.2101 9.83971 13.6417 11.2398 12.6196 12.2765C11.5976 13.3131 10.2057 13.9014 8.75 13.912H8.671C7.5214 13.9199 6.39868 13.5645 5.46307 12.8964C4.52746 12.2284 3.82677 11.2819 3.461 10.192C3.355 9.767 3.195 9.022 3.195 8.917V7.905C3.31236 6.53592 3.94098 5.26123 4.95573 4.33469C5.97047 3.40815 7.29691 2.89772 8.671 2.905C9.38637 2.89402 10.0969 3.0241 10.762 3.28782C11.427 3.55153 12.0336 3.9437 12.5471 4.44193C13.0606 4.94016 13.4708 5.53467 13.7544 6.19151C14.038 6.84835 14.1894 7.55463 14.2 8.27C14.2 8.307 14.2 8.346 14.2 8.384ZM19 10C19 8.21997 18.4722 6.47991 17.4832 4.99987C16.4943 3.51983 15.0887 2.36628 13.4442 1.68509C11.7996 1.0039 9.99002 0.82567 8.24419 1.17294C6.49836 1.5202 4.89472 2.37737 3.63604 3.63604C2.37737 4.89472 1.5202 6.49836 1.17294 8.24419C0.82567 9.99002 1.0039 11.7996 1.68509 13.4442C2.36628 15.0887 3.51983 16.4943 4.99987 17.4832C6.47991 18.4722 8.21997 19 10 19C12.387 19 14.6761 18.0518 16.364 16.364C18.0518 14.6761 19 12.387 19 10ZM6.649 5.84L7.729 6.502C7.85302 6.57796 7.99862 6.61089 8.14325 6.5957C8.28788 6.58052 8.42347 6.51806 8.529 6.418L9.429 5.561C9.49508 5.50021 9.57878 5.46202 9.668 5.45196C9.75722 5.44189 9.84732 5.46048 9.92528 5.50502C10.0032 5.54957 10.065 5.61776 10.1016 5.69974C10.1382 5.78171 10.1478 5.87322 10.129 5.961L9.862 7.2C9.83114 7.33972 9.84665 7.48569 9.9062 7.61579C9.96575 7.7459 10.0661 7.85305 10.192 7.921L11.375 8.565C11.455 8.6087 11.5188 8.67708 11.5568 8.75996C11.5948 8.84284 11.605 8.93578 11.5859 9.02494C11.5668 9.11409 11.5194 9.19468 11.4507 9.2547C11.3821 9.31472 11.2959 9.35095 11.205 9.358L9.927 9.458C9.77965 9.46913 9.64033 9.52954 9.53149 9.62949C9.42264 9.72944 9.35061 9.86313 9.327 10.009L9.108 11.336C9.0935 11.4269 9.04971 11.5105 8.9833 11.5741C8.91688 11.6378 8.83148 11.678 8.7401 11.6886C8.64873 11.6993 8.55637 11.6798 8.47711 11.6331C8.39784 11.5864 8.336 11.5151 8.301 11.43L7.767 10.148C7.71124 10.0146 7.61323 9.90327 7.48803 9.83101C7.36284 9.75875 7.21738 9.72959 7.074 9.748L5.737 9.92C5.64656 9.93188 5.55471 9.91413 5.4752 9.86941C5.39569 9.8247 5.33282 9.75542 5.29599 9.67197C5.25916 9.58852 5.25037 9.49538 5.27092 9.4065C5.29148 9.31763 5.34027 9.23781 5.41 9.179L6.425 8.31C6.53578 8.21541 6.6122 8.08688 6.6424 7.94438C6.6726 7.80188 6.65488 7.6534 6.592 7.522L6.047 6.382C6.0088 6.30001 5.99789 6.20794 6.01586 6.11929C6.03384 6.03065 6.07976 5.95009 6.14688 5.88946C6.214 5.82883 6.29879 5.79131 6.3888 5.78241C6.47881 5.77351 6.56931 5.79369 6.647 5.84" fill="#212429"/>
</g>
<defs>
<clipPath id="clip0_67_3367">
<rect width="20" height="20" fill="white"/>
</clipPath>
</defs>
</svg>
