<svg width="20" height="20" viewBox="0 0 20 20" fill="none" xmlns="http://www.w3.org/2000/svg">
<g clip-path="url(#clip0_67_3371)">
<path d="M13.4481 16.955C13.4393 17.2975 13.3593 17.6345 13.2132 17.9444C13.067 18.2543 12.8579 18.5304 12.5991 18.755C12.5209 18.822 12.4257 18.8663 12.3241 18.883C12.1491 18.911 8.0101 19.55 5.1021 17.459C2.6201 15.673 1.1901 12.259 2.5191 7.74698C2.68808 7.14464 2.93945 6.56853 3.2661 6.03498C2.94026 6.11766 2.62589 6.24026 2.3301 6.39998C2.24368 6.44668 2.14658 6.47004 2.04837 6.46776C1.95017 6.46549 1.85425 6.43764 1.7701 6.38698C1.70725 6.34948 1.65248 6.29987 1.60894 6.24104C1.56541 6.18221 1.53399 6.11532 1.51651 6.04425C1.49902 5.97319 1.49581 5.89936 1.50707 5.82704C1.51833 5.75473 1.54383 5.68537 1.5821 5.62298C2.7491 3.65698 4.4651 2.40998 6.6821 2.55098C7.34923 2.09881 8.07055 1.73227 8.8291 1.45998L8.7291 1.71498C8.43724 2.36579 8.28395 3.07019 8.27895 3.78343C8.27396 4.49667 8.41738 5.20315 8.7001 5.85798C9.6681 7.96798 12.0481 9.01098 13.0261 9.35798L13.2931 9.44098C11.7131 10.3773 10.0455 11.1574 8.3141 11.77C7.66563 11.9621 7.08799 12.3407 6.65307 12.8587C6.21816 13.3766 5.94517 14.0111 5.8681 14.683C5.77999 15.3179 5.79519 15.9629 5.9131 16.593C6.52322 16.8288 7.18433 16.9011 7.83101 16.8029C8.47768 16.7047 9.0875 16.4393 9.6001 16.033C10.152 15.5958 10.6098 15.0516 10.9461 14.433C10.9643 14.3973 10.9864 14.3638 11.0121 14.333C11.1059 14.218 11.2412 14.1446 11.3886 14.1287C11.5361 14.1128 11.684 14.1557 11.8001 14.248C12.2626 14.5452 12.6514 14.9439 12.9368 15.4138C13.2221 15.8837 13.3967 16.4125 13.4471 16.96M18.5001 4.19998C18.5101 4.38203 18.4591 4.56221 18.3551 4.71198C17.4366 6.33887 16.1354 7.71734 14.5641 8.72798L13.4351 8.37998C11.8779 7.89798 10.5566 6.85205 9.7301 5.44698C9.51031 4.92025 9.40233 4.35361 9.413 3.78297C9.42368 3.21233 9.55277 2.65012 9.7921 2.13198L10.1921 1.11798C13.0441 0.617981 15.8421 1.71798 18.3131 3.85098C18.4164 3.94019 18.4831 4.06453 18.5001 4.19998ZM13.3801 3.18598C13.236 2.97115 13.0129 2.82192 12.7593 2.7708C12.5057 2.71967 12.2422 2.77077 12.0261 2.91298C11.9191 2.98239 11.8269 3.07235 11.7549 3.17765C11.6828 3.28295 11.6324 3.40149 11.6066 3.52642C11.5807 3.65134 11.5799 3.78015 11.6042 3.90538C11.6285 4.03062 11.6774 4.14979 11.7481 4.25598C11.8924 4.4706 12.1155 4.61965 12.369 4.67077C12.6225 4.72188 12.8859 4.67093 13.1021 4.52898C13.2088 4.45931 13.3007 4.36921 13.3725 4.26386C13.4443 4.15851 13.4945 4.04 13.5202 3.91516C13.546 3.79031 13.5468 3.66161 13.5225 3.53646C13.4983 3.41132 13.4496 3.2922 13.3791 3.18598" fill="#212429"/>
</g>
<defs>
<clipPath id="clip0_67_3371">
<rect width="20" height="20" fill="white"/>
</clipPath>
</defs>
</svg>
