<svg width="20" height="20" viewBox="0 0 20 20" fill="none" xmlns="http://www.w3.org/2000/svg">
<g clip-path="url(#clip0_67_3364)">
<path d="M8.75009 1C9.01523 1.00248 9.27729 1.05717 9.5213 1.16093C9.7653 1.2647 9.98648 1.41551 10.1722 1.60476C10.3579 1.79401 10.5045 2.01799 10.6037 2.2639C10.7029 2.50982 10.7526 2.77286 10.7501 3.038V3.548H13.5001C14.0357 3.55328 14.5472 3.77104 14.9223 4.1534C15.2973 4.53577 15.5052 5.05143 15.5001 5.587V10.687H17.0001V7.538C16.6665 7.42005 16.3853 7.18797 16.2063 6.88276C16.0272 6.57755 15.9619 6.21888 16.0217 5.87013C16.0815 5.52139 16.2627 5.20502 16.5333 4.97695C16.8038 4.74888 17.1462 4.62379 17.5001 4.62379C17.8539 4.62379 18.1964 4.74888 18.4669 4.97695C18.7375 5.20502 18.9187 5.52139 18.9785 5.87013C19.0383 6.21888 18.9729 6.57755 18.7939 6.88276C18.6149 7.18797 18.3337 7.42005 18.0001 7.538V11.193C18.0028 11.3254 17.9528 11.4535 17.8611 11.5492C17.7694 11.6448 17.6435 11.7001 17.5111 11.703H15.5001V16.961C15.5052 17.4966 15.2973 18.0122 14.9223 18.3946C14.5472 18.777 14.0357 18.9947 13.5001 19H3.00009C2.46452 18.9947 1.95297 18.777 1.57792 18.3946C1.20287 18.0122 0.995027 17.4966 1.00009 16.961V5.587C0.995027 5.05143 1.20287 4.53577 1.57792 4.1534C1.95297 3.77104 2.46452 3.55328 3.00009 3.548H5.75009V3.038C5.74496 2.52043 5.9385 2.02061 6.29085 1.64147C6.6432 1.26232 7.12754 1.03274 7.64409 1H7.75009H8.75009ZM12.5111 14.194H9.48909C9.3594 14.194 9.23502 14.2455 9.14332 14.3372C9.05161 14.4289 9.00009 14.5533 9.00009 14.683C9.00009 14.8127 9.05161 14.9371 9.14332 15.0288C9.23502 15.1205 9.3594 15.172 9.48909 15.172H12.5111C12.6408 15.172 12.7652 15.1205 12.8569 15.0288C12.9486 14.9371 13.0001 14.8127 13.0001 14.683C13.0001 14.5533 12.9486 14.4289 12.8569 14.3372C12.7652 14.2455 12.6408 14.194 12.5111 14.194ZM11.7501 5.887H4.75009C4.55534 5.88475 4.36205 5.92089 4.18126 5.99335C4.00048 6.06582 3.83573 6.17318 3.69644 6.30931C3.55715 6.44544 3.44604 6.60768 3.36946 6.78676C3.29287 6.96584 3.25231 7.15825 3.25009 7.353V10.774C3.25484 11.1672 3.41548 11.5425 3.69673 11.8174C3.97798 12.0923 4.35684 12.2443 4.75009 12.24H11.7501C12.1433 12.2443 12.5222 12.0923 12.8034 11.8174C13.0847 11.5425 13.2453 11.1672 13.2501 10.774V7.353C13.2479 7.15825 13.2073 6.96584 13.1307 6.78676C13.0541 6.60768 12.943 6.44544 12.8037 6.30931C12.6644 6.17318 12.4997 6.06582 12.3189 5.99335C12.1381 5.92089 11.9448 5.88475 11.7501 5.887ZM6.25009 6.863V11.263H4.75009C4.61954 11.263 4.49414 11.212 4.40071 11.1208C4.30728 11.0296 4.25322 10.9055 4.25009 10.775V7.353C4.25297 7.22231 4.30691 7.09794 4.40037 7.00654C4.49383 6.91513 4.61937 6.86397 4.75009 6.864L6.25009 6.863ZM9.25009 6.863V11.263H7.25009V6.863H9.25009ZM11.7501 6.863C11.8808 6.86297 12.0064 6.91413 12.0998 7.00554C12.1933 7.09694 12.2472 7.22131 12.2501 7.352V10.773C12.247 10.9035 12.1929 11.0276 12.0995 11.1188C12.006 11.21 11.8806 11.261 11.7501 11.261H10.2501V6.861L11.7501 6.863Z" fill="#212429"/>
</g>
<defs>
<clipPath id="clip0_67_3364">
<rect width="20" height="20" fill="white"/>
</clipPath>
</defs>
</svg>
