<svg width="20" height="20" viewBox="0 0 20 20" fill="none" xmlns="http://www.w3.org/2000/svg">
<g clip-path="url(#clip0_67_3366)">
<path d="M16.3601 3.64002C14.8891 2.1734 12.9551 1.26205 10.8877 1.06116C8.82016 0.860264 6.74696 1.38226 5.02111 2.53825C3.29526 3.69423 2.02349 5.41273 1.42236 7.40108C0.821243 9.38942 0.92795 11.5247 1.72431 13.4432C2.52067 15.3617 3.95745 16.9448 5.78995 17.923C7.62245 18.9011 9.73736 19.2138 11.7745 18.8078C13.8117 18.4018 15.6451 17.3022 16.9626 15.6962C18.2801 14.0902 19.0001 12.0772 19.0001 10C18.9945 7.61457 18.0454 5.32821 16.3601 3.64002ZM15.9401 4.96002C17.0127 6.2069 17.6637 7.76093 17.8001 9.40002H16.6001C16.4942 8.07139 15.9689 6.81075 15.1001 5.80002L15.9401 4.96002ZM10.6001 2.26002C12.2458 2.36883 13.8082 3.02336 15.0401 4.12002L14.2001 4.96002C13.1771 4.11126 11.9231 3.58875 10.6001 3.46002V2.26002ZM9.40009 2.26002V3.46002C8.07146 3.56591 6.81082 4.09117 5.80009 4.96002L4.96009 4.06002C6.21215 3.005 7.76682 2.37473 9.40009 2.26002ZM4.12009 4.96002L4.96009 5.80002C4.09124 6.81075 3.56598 8.07139 3.46009 9.40002H2.26009C2.3689 7.75431 3.02343 6.1919 4.12009 4.96002ZM4.06009 15.04C2.98747 13.7931 2.33646 12.2391 2.20009 10.6H3.40009C3.50598 11.9287 4.03124 13.1893 4.90009 14.2L4.06009 15.04ZM9.40009 17.74C7.75438 17.6312 6.19197 16.9767 4.96009 15.88L5.80009 15.04C6.82308 15.8888 8.07708 16.4113 9.40009 16.54V17.74ZM8.80009 13C8.79945 12.7918 8.85482 12.5873 8.96038 12.4078C9.06594 12.2284 9.21781 12.0806 9.40009 11.98V11.02C9.23166 10.9117 9.08844 10.7684 8.98009 10.6H8.02009C7.91949 10.7823 7.77172 10.9342 7.59227 11.0397C7.41282 11.1453 7.20828 11.2007 7.00009 11.2C6.68183 11.2 6.3766 11.0736 6.15156 10.8485C5.92652 10.6235 5.80009 10.3183 5.80009 10C5.80009 9.68176 5.92652 9.37653 6.15156 9.15149C6.3766 8.92645 6.68183 8.80002 7.00009 8.80002C7.20828 8.79939 7.41282 8.85475 7.59227 8.96031C7.77172 9.06587 7.91949 9.21774 8.02009 9.40002H8.98009C9.08844 9.23159 9.23166 9.08837 9.40009 8.98002V8.02002C9.21781 7.91942 9.06594 7.77165 8.96038 7.5922C8.85482 7.41275 8.79945 7.20821 8.80009 7.00002C8.80009 6.68176 8.92652 6.37653 9.15156 6.15149C9.3766 5.92645 9.68183 5.80002 10.0001 5.80002C10.3183 5.80002 10.6236 5.92645 10.8486 6.15149C11.0737 6.37653 11.2001 6.68176 11.2001 7.00002C11.2007 7.20821 11.1454 7.41275 11.0398 7.5922C10.9342 7.77165 10.7824 7.91942 10.6001 8.02002V8.98002C10.7685 9.08837 10.9117 9.23159 11.0201 9.40002H11.9801C12.0807 9.21774 12.2285 9.06587 12.4079 8.96031C12.5874 8.85475 12.7919 8.79939 13.0001 8.80002C13.3183 8.80002 13.6236 8.92645 13.8486 9.15149C14.0737 9.37653 14.2001 9.68176 14.2001 10C14.2001 10.3183 14.0737 10.6235 13.8486 10.8485C13.6236 11.0736 13.3183 11.2 13.0001 11.2C12.7919 11.2007 12.5874 11.1453 12.4079 11.0397C12.2285 10.9342 12.0807 10.7823 11.9801 10.6H11.0201C10.9117 10.7684 10.7685 10.9117 10.6001 11.02V11.98C10.7824 12.0806 10.9342 12.2284 11.0398 12.4078C11.1454 12.5873 11.2007 12.7918 11.2001 13C11.2001 13.3183 11.0737 13.6235 10.8486 13.8485C10.6236 14.0736 10.3183 14.2 10.0001 14.2C9.68183 14.2 9.3766 14.0736 9.15156 13.8485C8.92652 13.6235 8.80009 13.3183 8.80009 13ZM10.6001 17.74V16.54C11.9287 16.4341 13.1894 15.9089 14.2001 15.04L15.0401 15.88C13.8082 16.9767 12.2458 17.6312 10.6001 17.74ZM15.9401 15.04L15.0401 14.2C15.8889 13.177 16.4114 11.923 16.5401 10.6H17.7401C17.6254 12.2333 16.9951 13.788 15.9401 15.04Z" fill="#212429"/>
</g>
<defs>
<clipPath id="clip0_67_3366">
<rect width="20" height="20" fill="white"/>
</clipPath>
</defs>
</svg>
