<svg width="20" height="20" viewBox="0 0 20 20" fill="none" xmlns="http://www.w3.org/2000/svg">
<g clip-path="url(#clip0_67_3370)">
<path d="M13.4512 16.285H14.9512V17.166C14.9512 17.6964 14.7405 18.2052 14.3654 18.5802C13.9903 18.9553 13.4816 19.166 12.9512 19.166H4.95117C4.42074 19.166 3.91203 18.9553 3.53696 18.5802C3.16189 18.2052 2.95117 17.6964 2.95117 17.166V3.16602C2.95117 2.63558 3.16189 2.12687 3.53696 1.7518C3.91203 1.37673 4.42074 1.16602 4.95117 1.16602H12.9512C13.4816 1.16602 13.9903 1.37673 14.3654 1.7518C14.7405 2.12687 14.9512 2.63558 14.9512 3.16602V5.54802H13.4512V3.16602C13.4512 3.03341 13.3985 2.90623 13.3047 2.81246C13.211 2.71869 13.0838 2.66602 12.9512 2.66602H11.1602V3.26602C11.1602 3.39862 11.1075 3.5258 11.0137 3.61957C10.92 3.71334 10.7928 3.76602 10.6602 3.76602H7.16017C7.02756 3.76602 6.90039 3.71334 6.80662 3.61957C6.71285 3.5258 6.66017 3.39862 6.66017 3.26602V2.66602H4.95117C4.81856 2.66602 4.69139 2.71869 4.59762 2.81246C4.50385 2.90623 4.45117 3.03341 4.45117 3.16602V17.166C4.45117 17.2986 4.50385 17.4258 4.59762 17.5196C4.69139 17.6133 4.81856 17.666 4.95117 17.666H12.9512C13.0838 17.666 13.211 17.6133 13.3047 17.5196C13.3985 17.4258 13.4512 17.2986 13.4512 17.166V16.285ZM13.7512 6.41602C13.4796 6.41888 13.2088 6.44632 12.9422 6.49802C13.9778 6.68508 14.9148 7.22998 15.5896 8.03757C16.2644 8.84516 16.6341 9.86412 16.6341 10.9165C16.6341 11.9689 16.2644 12.9879 15.5896 13.7955C14.9148 14.603 13.9778 15.148 12.9422 15.335C13.5595 15.4536 14.1948 15.4416 14.8071 15.2997C15.4195 15.1577 15.9953 14.8891 16.4975 14.5111C16.9998 14.133 17.4172 13.654 17.723 13.1048C18.0287 12.5555 18.216 11.9484 18.2728 11.3223C18.3296 10.6963 18.2546 10.0653 18.0526 9.47008C17.8507 8.87481 17.5263 8.32846 17.1003 7.86623C16.6743 7.404 16.1562 7.03614 15.5793 6.78636C15.0025 6.53658 14.3797 6.41042 13.7512 6.41602ZM12.3542 6.60002H12.3592L12.4372 6.62302C13.1225 6.84373 13.7452 7.22482 14.2536 7.7346C14.7619 8.24438 15.1413 8.86813 15.3602 9.55402L15.3802 9.61802C15.3815 9.62618 15.3835 9.63421 15.3862 9.64202C15.4389 9.82591 15.48 10.0129 15.5092 10.202C15.5162 10.243 15.5232 10.284 15.5282 10.325C15.5868 10.7172 15.5868 11.1159 15.5282 11.508C15.5232 11.548 15.5162 11.59 15.5092 11.63C15.4802 11.8191 15.4391 12.0062 15.3862 12.19C15.3837 12.1979 15.3817 12.2059 15.3802 12.214L15.3602 12.279C15.1412 12.9645 14.7617 13.5878 14.2533 14.0971C13.7449 14.6064 13.1223 14.9869 12.4372 15.207L12.3592 15.231H12.3542C12.1648 15.286 11.972 15.3287 11.7772 15.359L11.6692 15.375C11.2727 15.429 10.8707 15.429 10.4742 15.375L10.3662 15.359C10.1713 15.3287 9.97857 15.286 9.78917 15.231L9.71117 15.207C9.02606 14.9869 8.40341 14.6064 7.895 14.0971C7.38659 13.5878 7.00713 12.9645 6.78817 12.279L6.76917 12.214C6.7667 12.2061 6.7647 12.1981 6.76317 12.19C6.71039 12.0061 6.66897 11.819 6.63917 11.63C6.63217 11.59 6.62517 11.548 6.62017 11.508C6.56284 11.1158 6.56284 10.7173 6.62017 10.325C6.62517 10.284 6.63217 10.243 6.63917 10.202C6.66919 10.013 6.7106 9.82601 6.76317 9.64202L6.76917 9.61802L6.78817 9.55402C7.0068 8.86905 7.38554 8.24605 7.893 7.73668C8.40047 7.2273 9.02203 6.84622 9.70617 6.62502L9.78417 6.60002C9.97345 6.54458 10.1662 6.50182 10.3612 6.47202L10.4692 6.45502C10.8657 6.40202 11.2676 6.40202 11.6642 6.45502L11.7722 6.47202C11.9671 6.50182 12.1599 6.54458 12.3492 6.60002M12.0112 8.63102C11.8609 8.56122 11.7037 8.50758 11.5422 8.47102V8.00702C11.5451 7.94367 11.5351 7.88039 11.5129 7.821C11.4907 7.76161 11.4567 7.70734 11.4129 7.66148C11.3691 7.61561 11.3164 7.57911 11.2581 7.55417C11.1998 7.52922 11.1371 7.51637 11.0737 7.51637C11.0103 7.51637 10.9475 7.52922 10.8892 7.55417C10.8309 7.57911 10.7783 7.61561 10.7345 7.66148C10.6907 7.70734 10.6566 7.76161 10.6344 7.821C10.6122 7.88039 10.6022 7.94367 10.6052 8.00702V8.45902C10.3667 8.5092 10.1387 8.6002 9.93117 8.72802C9.72649 8.84671 9.55591 9.0162 9.43591 9.22011C9.31591 9.42403 9.25056 9.65545 9.24617 9.89202C9.2495 10.2034 9.35964 10.5041 9.55817 10.744C9.70206 10.9215 9.88204 11.0664 10.0862 11.169C10.2625 11.2564 10.4509 11.3167 10.6452 11.348C10.7889 11.372 10.9344 11.3841 11.0802 11.384C11.1712 11.383 11.2621 11.392 11.3512 11.411C11.4473 11.4317 11.5401 11.4653 11.6272 11.511C11.7124 11.5582 11.7889 11.6198 11.8532 11.693C11.9161 11.7644 11.9516 11.8559 11.9532 11.951C11.9532 12.008 11.9532 12.141 11.7262 12.289C11.5243 12.4109 11.293 12.4752 11.0572 12.475C10.9591 12.47 10.8615 12.458 10.7652 12.439C10.6721 12.4199 10.5812 12.3911 10.4942 12.353C10.412 12.3164 10.3397 12.2609 10.2832 12.191C10.2012 12.099 10.0863 12.0429 9.96327 12.0349C9.84026 12.0269 9.71905 12.0677 9.62587 12.1484C9.53269 12.2291 9.47502 12.3432 9.46535 12.4661C9.45567 12.589 9.49477 12.7107 9.57417 12.805C9.72861 12.9884 9.92476 13.1321 10.1462 13.224C10.2937 13.2861 10.4471 13.333 10.6042 13.364V13.827C10.6042 13.9513 10.6535 14.0704 10.7414 14.1583C10.8293 14.2462 10.9484 14.2955 11.0727 14.2955C11.1969 14.2955 11.3161 14.2462 11.404 14.1583C11.4918 14.0704 11.5412 13.9513 11.5412 13.827V13.359C11.7868 13.3065 12.0211 13.2107 12.2332 13.076C12.4308 12.9618 12.5951 12.7979 12.7099 12.6005C12.8246 12.4032 12.8857 12.1793 12.8872 11.951C12.8872 11.6291 12.7703 11.3182 12.5582 11.076C12.419 10.9157 12.2519 10.7819 12.0652 10.681C11.9031 10.5967 11.7306 10.5341 11.5522 10.495C11.398 10.4622 11.2408 10.4458 11.0832 10.446C10.9887 10.4462 10.8944 10.4389 10.8012 10.424C10.6999 10.4067 10.6016 10.375 10.5092 10.33C10.4242 10.2872 10.3492 10.2269 10.2892 10.153C10.228 10.0798 10.1929 9.98835 10.1892 9.89301C10.1939 9.81473 10.2193 9.73912 10.2629 9.67392C10.3065 9.60872 10.3666 9.55629 10.4372 9.52202C10.5665 9.4368 10.7127 9.38046 10.8657 9.35681C11.0188 9.33317 11.1752 9.34279 11.3242 9.38502L11.3532 9.39002C11.4492 9.41416 11.5427 9.44765 11.6322 9.49002C11.7158 9.52789 11.7923 9.58 11.8582 9.64402C11.9475 9.72482 12.0646 9.76814 12.185 9.76497C12.3055 9.76181 12.4201 9.71241 12.5051 9.62702C12.5901 9.54162 12.639 9.42679 12.6416 9.30633C12.6442 9.18587 12.6004 9.06902 12.5192 8.98002C12.3748 8.83535 12.2054 8.71811 12.0192 8.63402" fill="#212429"/>
</g>
<defs>
<clipPath id="clip0_67_3370">
<rect width="20" height="20" fill="white"/>
</clipPath>
</defs>
</svg>
