<svg width="16" height="16" viewBox="0 0 16 16" fill="none" xmlns="http://www.w3.org/2000/svg">
<g clip-path="url(#clip0_67_3374)">
<path fill-rule="evenodd" clip-rule="evenodd" d="M4.20262 0.315259C5.4539 0.0779133 6.72684 -0.0259312 8.00004 0.00547111C9.27324 -0.025886 10.5462 0.0779581 11.7975 0.315259C12.7674 0.488766 13.6662 0.940057 14.3847 1.61437C15.0594 2.33257 15.5108 3.23147 15.6838 4.2016C15.9216 5.45316 16.0258 6.72643 15.9946 8C16.0257 9.27323 15.9215 10.5462 15.6838 11.7974C15.5108 12.7675 15.0594 13.6664 14.3847 14.3846C13.6662 15.0589 12.7674 15.5102 11.7975 15.6837C10.5462 15.9214 9.27327 16.0256 8.00004 15.9945C6.72684 16.0259 5.4539 15.9221 4.20262 15.6847C3.23265 15.5112 2.33388 15.0599 1.61538 14.3856C0.940525 13.667 0.488868 12.7678 0.315261 11.7974C0.0779585 10.5461 -0.0258862 9.2732 0.00547114 8C-0.0259314 6.7268 0.0779137 5.45387 0.315261 4.2026C0.488769 3.23263 0.940061 2.33387 1.61438 1.61537C2.33303 0.940521 3.23218 0.488866 4.20262 0.315259ZM6.80085 3.72493C6.89124 3.48119 7.05408 3.27098 7.26747 3.12252C7.48086 2.97407 7.73459 2.89449 7.99454 2.89449C8.25449 2.89449 8.50822 2.97407 8.72161 3.12252C8.935 3.27098 9.09784 3.48119 9.18823 3.72493L9.68789 5.08C9.74468 5.23323 9.84706 5.36538 9.98124 5.45864C10.1154 5.55191 10.275 5.60182 10.4384 5.60164H11.6116C11.8664 5.60135 12.1156 5.67671 12.3276 5.81818C12.5396 5.95965 12.7048 6.16087 12.8023 6.39633C12.8998 6.63178 12.9252 6.89088 12.8753 7.1408C12.8254 7.39071 12.7024 7.62018 12.522 7.80014L11.2978 9.0263C11.2048 9.11928 11.1361 9.23378 11.098 9.35963C11.0598 9.48549 11.0533 9.61882 11.0789 9.7478L11.3787 11.2228C11.4258 11.4611 11.4024 11.708 11.3114 11.9333C11.2204 12.1585 11.0658 12.3524 10.8664 12.4911C10.667 12.6299 10.4315 12.7076 10.1886 12.7146C9.94578 12.7217 9.70615 12.6578 9.49902 12.5309L8.42475 11.8654C8.29836 11.7871 8.15267 11.7457 8.00403 11.7457C7.8554 11.7457 7.70971 11.7871 7.58332 11.8654L6.50106 12.5309C6.29396 12.6593 6.05383 12.7243 5.81026 12.7179C5.56669 12.7115 5.33029 12.634 5.13019 12.495C4.93009 12.356 4.77502 12.1615 4.68407 11.9354C4.59313 11.7094 4.57028 11.4617 4.61834 11.2228L4.91813 9.7478C4.94419 9.61906 4.93813 9.48588 4.90049 9.36004C4.86284 9.2342 4.79476 9.11957 4.70228 9.0263L3.43714 7.76616C3.25973 7.58863 3.139 7.36245 3.09021 7.11626C3.04143 6.87007 3.06679 6.61494 3.1631 6.38318C3.2594 6.15141 3.4223 5.95344 3.63119 5.81431C3.84008 5.67519 4.08555 5.60117 4.33653 5.60164H5.5547C5.71794 5.60161 5.87726 5.55161 6.01125 5.45836C6.14524 5.3651 6.24746 5.23307 6.30419 5.08L6.80085 3.72493Z" fill="#3673FE"/>
</g>
<defs>
<clipPath id="clip0_67_3374">
<rect width="16" height="16" fill="white"/>
</clipPath>
</defs>
</svg>
