<svg width="16" height="16" viewBox="0 0 16 16" fill="none" xmlns="http://www.w3.org/2000/svg">
<g clip-path="url(#clip0_67_3373)">
<path d="M14.2222 0H1.77778C0.8 0 0 0.8 0 1.77778V14.2222C0 15.2 0.8 16 1.77778 16H14.2222C15.2 16 16 15.2 16 14.2222V1.77778C16 0.8 15.2 0 14.2222 0ZM12.6489 7.35111L8.57778 11.4222C8.25778 11.7422 7.74222 11.7422 7.42222 11.4222L3.35111 7.35111C3.2 7.2 3.11111 6.98667 3.11111 6.77333C3.11111 6.32 3.47556 5.95556 3.92889 5.95556H12.08C12.2933 5.95556 12.5067 6.04444 12.6578 6.19556C12.9778 6.51556 12.9778 7.03111 12.6578 7.35111H12.6489Z" fill="#212429"/>
</g>
<defs>
<clipPath id="clip0_67_3373">
<rect width="16" height="16" fill="white"/>
</clipPath>
</defs>
</svg>
