<svg width="17" height="18" viewBox="0 0 17 18" fill="none" xmlns="http://www.w3.org/2000/svg">
<path d="M8.03027 1.01462C9.60795 1.02159 11.1486 1.49635 12.457 2.3779C13.7654 3.25948 14.7829 4.50919 15.3818 5.96872C15.9808 7.42833 16.1343 9.03251 15.8223 10.5791C15.5102 12.1256 14.7469 13.545 13.6289 14.6582C12.5108 15.7714 11.088 16.5287 9.54004 16.834C7.99221 17.1392 6.38856 16.9792 4.93164 16.374C3.47464 15.7686 2.22938 14.7449 1.35352 13.4326C0.47765 12.1202 0.00978078 10.5778 0.00976562 8.99997C0.0117375 7.94899 0.220839 6.90861 0.625 5.93845C1.02915 4.96832 1.6205 4.08719 2.36523 3.34567C3.10997 2.60418 3.99397 2.01708 4.96582 1.61716C5.93776 1.21723 6.97928 1.01199 8.03027 1.01462ZM4.03027 6.99313L8.04004 12.9931L12.04 6.99313H4.03027Z" fill="currentColor"/>
</svg>
